<?xml version="1.0" standalone="no"?>
<!DOCTYPE svg PUBLIC "-//W3C//DTD SVG 20010904//EN"
 "http://www.w3.org/TR/2001/REC-SVG-20010904/DTD/svg10.dtd">
<svg version="1.0" xmlns="http://www.w3.org/2000/svg"
 width="80.000000pt" height="80.000000pt" viewBox="0 0 80.000000 80.000000"
 preserveAspectRatio="xMidYMid meet">
<metadata>
Created by potrace 1.11, written by Peter Selinger 2001-2013
</metadata>
<g transform="translate(0.000000,80.000000) scale(0.100000,-0.100000)"
fill="#000000" stroke="none">
<path d="M168 768 c-56 -39 -71 -75 -88 -209 -12 -88 -3 -222 20 -301 14 -48
61 -88 104 -88 51 0 176 35 280 79 121 50 293 146 306 171 19 36 12 80 -19
109 -100 93 -416 262 -504 268 -46 4 -57 1 -99 -29z m338 -195 c-3 -3 -15 2
-26 12 -11 10 -21 16 -23 14 -1 -2 -7 -13 -13 -24 -6 -11 -19 -21 -28 -23 -24
-5 -21 39 5 72 l22 28 35 -36 c19 -20 32 -39 28 -43z m-138 11 c28 -46 28 -62
-3 -76 -39 -17 -56 4 -28 34 19 20 20 25 7 42 -8 11 -14 23 -14 28 0 17 16 5
38 -28z m-68 -60 c13 -40 6 -60 -8 -23 -20 54 -24 71 -14 65 6 -3 16 -22 22
-42z m-40 -19 c0 -25 -3 -45 -6 -45 -17 0 -73 43 -68 52 4 5 13 3 23 -6 25
-23 31 -20 31 14 0 17 5 30 10 30 6 0 10 -20 10 -45z m427 -21 c40 -44 42 -52
7 -29 -14 9 -27 15 -29 13 -1 -2 -8 -13 -14 -26 -8 -15 -18 -21 -28 -18 -9 4
-24 -2 -35 -14 -24 -25 -49 -25 -79 -1 -35 28 -62 11 -54 -32 5 -32 5 -32 -11
-9 -9 12 -26 22 -37 22 -20 0 -20 1 -2 13 10 8 15 19 11 26 -14 22 -25 71 -16
71 5 0 14 -18 20 -40 13 -47 28 -50 66 -15 35 32 59 29 59 -8 0 -25 6 -32 23
-25 4 2 22 27 41 56 18 28 36 52 39 52 3 0 21 -16 39 -36z m-537 -98 c0 -7 14
-39 30 -70 17 -31 25 -56 20 -56 -6 0 -24 28 -40 63 -31 64 -38 93 -20 82 6
-3 10 -12 10 -19z m192 -8 c-34 -34 0 -50 45 -21 21 14 25 14 21 3 -7 -21 -52
-44 -71 -37 -24 9 -23 67 0 67 13 0 14 -3 5 -12z m-25 -77 c-4 -1 -17 5 -28
15 -21 19 -20 20 -37 -18 -8 -19 -16 -26 -27 -22 -21 9 -19 47 6 78 l21 27 37
-38 c20 -21 33 -40 28 -42z"/>
<path d="M422 603 c-8 -14 -9 -24 -2 -28 12 -7 24 18 18 37 -3 8 -9 5 -16 -9z"/>
<path d="M345 529 c-11 -17 0 -20 21 -4 17 13 17 14 2 15 -9 0 -20 -5 -23 -11z"/>
<path d="M625 469 c-4 -11 -4 -23 0 -27 7 -7 25 17 25 36 0 20 -18 14 -25 -9z"/>
<path d="M506 435 c4 -9 11 -14 16 -13 15 5 11 23 -6 26 -11 2 -14 -2 -10 -13z"/>
<path d="M238 344 c-5 -4 -8 -16 -8 -28 0 -14 3 -17 11 -9 6 6 9 19 7 28 -1 9
-6 13 -10 9z"/>
<path d="M393 145 c-24 -27 -14 -35 37 -34 28 1 53 6 56 11 3 4 11 5 17 1 6
-4 30 -6 54 -4 30 2 43 -1 43 -11 0 -10 2 -10 8 -1 4 7 38 13 84 14 58 1 78 6
83 17 7 20 -4 30 -14 13 -6 -8 -11 -9 -15 -3 -3 6 -23 8 -44 6 -20 -3 -64 -5
-97 -6 -33 0 -66 -5 -73 -10 -7 -6 -16 -8 -19 -4 -4 4 -1 11 7 16 8 6 11 10 7
10 -4 0 -20 -8 -34 -17 -15 -10 -24 -13 -20 -6 4 6 3 14 -3 18 -5 3 -10 1 -10
-6 0 -7 -3 -9 -7 -6 -3 4 -12 2 -20 -4 -10 -9 -13 -8 -13 5 0 20 -11 20 -27 1z"/>
<path d="M200 119 c0 -23 3 -25 41 -22 22 2 38 -1 35 -6 -3 -5 5 -4 18 2 13 7
22 15 20 18 -2 4 4 5 14 2 10 -2 24 2 31 10 10 13 5 15 -38 12 -27 -2 -54 -6
-60 -10 -6 -3 -11 -1 -11 6 0 8 -4 9 -13 0 -10 -8 -17 -7 -25 1 -9 9 -12 6
-12 -13z"/>
<path d="M113 114 c-7 -7 -13 -20 -13 -28 0 -12 5 -14 24 -6 13 5 27 6 30 3 7
-7 36 16 36 28 0 15 -27 10 -41 -7 -12 -15 -14 -15 -19 4 -4 17 -7 18 -17 6z"/>
<path d="M670 93 c-200 -9 -555 -52 -603 -74 -24 -10 -30 -11 178 16 163 21
342 35 448 35 66 0 88 3 85 13 -5 14 -16 15 -108 10z"/>
</g>
</svg>
